<svg xmlns="http://www.w3.org/2000/svg" viewBox="0 0 160 160" role="img" aria-label="Thai noodles">
  <rect width="160" height="160" rx="22" fill="#196b52"/>
  <circle cx="38" cy="35" r="42" fill="#ffd166" opacity=".62"/>
  <path d="M35 91c7 32 82 32 90 0H35Z" fill="#f3efe0" stroke="#6d2d1a" stroke-width="6" stroke-linejoin="round"/>
  <path d="M43 88c11 18 64 18 74 0" fill="#f5b342"/>
  <path d="M47 70c14 14 25-12 39 2 13 13 22-9 35 2M50 82c14 12 24-9 37 2 15 13 24-8 35 1" fill="none" stroke="#f8d46b" stroke-width="7" stroke-linecap="round"/>
  <circle cx="65" cy="75" r="7" fill="#e9442e"/>
  <circle cx="98" cy="78" r="6" fill="#e9442e"/>
  <path d="M112 38 73 93M125 46 85 96" stroke="#70351e" stroke-width="5" stroke-linecap="round"/>
</svg>
